ffmpeg started on 2025-06-16 at 16:53:11
Report written to "D:\Convert\FFMetrics\reports\ssim_report-6.txt"
Log level: 32
Command line:
ffmpeg -hide_banner -nostdin -i "G:\\\xc0\xed\xe8\xec\xe5\\[\xd2\xee\xef]\\\xd0\xfb\xf6\xe0\xf0\xfc-\xe2\xe0\xec\xef\xe8\xf0\\\xd2\xc2-2\\[JamClub] Vampire Knight Guilty - 04_HEVC.mkv" -i "G:\\\xc0\xed\xe8\xec\xe5\\[\xd2\xee\xef]\\\xd0\xfb\xf6\xe0\xf0\xfc-\xe2\xe0\xec\xef\xe8\xf0\\\xd2\xc2-2\\[JamClub] Vampire Knight Guilty - 04.mp4" -lavfi "[0:v]settb=AVTB,setpts=PTS-STARTPTS,format=pix_fmts=yuv420p10,fps=24000/1001,scale=1920:1080:flags=bicubic[main];[1:v]settb=AVTB,setpts=PTS-STARTPTS,format=pix_fmts=yuv420p,fps=24000/1001,scale=1920:1080:flags=bicubic[ref];[main][ref]ssim=eof_action=endall:stats_file='D\\:/Convert/FFMetrics/logs/ssim_logfile-6.txt'" -f null -
Input #0, matroska,webm, from 'G:\Аниме\[Топ]\Рыцарь-вампир\ТВ-2\[JamClub] Vampire Knight Guilty - 04_HEVC.mkv':
  Metadata:
    COMPATIBLE_BRANDS: isomiso2avc1mp41
    MAJOR_BRAND     : isom
    MINOR_VERSION   : 512
    ENCODER         : Lavf61.7.100
  Duration: 00:24:24.04, start: -0.001000, bitrate: 1012 kb/s
  Stream #0:0: Video: hevc (Main 10), yuv420p10le(tv, bt709, progressive), 1920x1080 [SAR 1:1 DAR 16:9], 23.98 fps, 23.98 tbr, 1k tbn (default)
      Metadata:
        HANDLER_NAME    : VideoHandler
        VENDOR_ID       : [0][0][0][0]
        ENCODER         : Lavc61.19.100 libx265
        BPS             : 813550
        DURATION        : 00:24:23.962708333
        NUMBER_OF_FRAMES: 43742
        NUMBER_OF_BYTES : 148875898
        _STATISTICS_WRITING_APP: mkvpropedit v66.0.0 ('Josie') 64-bit
        _STATISTICS_WRITING_DATE_UTC: 2025-06-16 10:43:36
        _STATISTICS_TAGS: BPS DURATION NUMBER_OF_FRAMES NUMBER_OF_BYTES
  Stream #0:1(eng): Audio: aac (LC), 48000 Hz, stereo, fltp (default)
      Metadata:
        HANDLER_NAME    : SoundHandler
        VENDOR_ID       : [0][0][0][0]
        ENCODER         : Lavc61.19.100 aac
        BPS             : 194911
        DURATION        : 00:24:23.994000000
        NUMBER_OF_FRAMES: 68626
        NUMBER_OF_BYTES : 35668729
        _STATISTICS_WRITING_APP: mkvpropedit v66.0.0 ('Josie') 64-bit
        _STATISTICS_WRITING_DATE_UTC: 2025-06-16 10:43:36
        _STATISTICS_TAGS: BPS DURATION NUMBER_OF_FRAMES NUMBER_OF_BYTES
Input #1, mov,mp4,m4a,3gp,3g2,mj2, from 'G:\Аниме\[Топ]\Рыцарь-вампир\ТВ-2\[JamClub] Vampire Knight Guilty - 04.mp4':
  Metadata:
    major_brand     : isom
    minor_version   : 512
    compatible_brands: isomiso2avc1mp41
    encoder         : Lavf60.16.100
  Duration: 00:24:24.01, start: 0.000000, bitrate: 3644 kb/s
  Stream #1:0[0x1](und): Video: h264 (High) (avc1 / 0x31637661), yuv420p(progressive), 1920x1080 [SAR 1:1 DAR 16:9], 3443 kb/s, 29.88 fps, 23.98 tbr, 90k tbn (default)
      Metadata:
        handler_name    : VideoHandler
        vendor_id       : [0][0][0][0]
  Stream #1:1[0x2](eng): Audio: aac (LC) (mp4a / 0x6134706D), 48000 Hz, stereo, fltp, 191 kb/s (default)
      Metadata:
        handler_name    : SoundHandler
        vendor_id       : [0][0][0][0]
Stream mapping:
  Stream #0:0 (hevc) -> settb:default
  Stream #1:0 (h264) -> settb:default
  ssim:default -> Stream #0:0 (wrapped_avframe)
  Stream #0:1 -> #0:1 (aac (native) -> pcm_s16le (native))
Output #0, null, to 'pipe:':
  Metadata:
    COMPATIBLE_BRANDS: isomiso2avc1mp41
    MAJOR_BRAND     : isom
    MINOR_VERSION   : 512
    encoder         : Lavf61.7.100
  Stream #0:0: Video: wrapped_avframe, yuv420p10le(tv, bt709, progressive), 1920x1080 [SAR 1:1 DAR 16:9], q=2-31, 200 kb/s, 23.98 fps, 23.98 tbn
      Metadata:
        encoder         : Lavc61.19.100 wrapped_avframe
  Stream #0:1(eng): Audio: pcm_s16le, 48000 Hz, stereo, s16, 1536 kb/s (default)
      Metadata:
        HANDLER_NAME    : SoundHandler
        VENDOR_ID       : [0][0][0][0]
        _STATISTICS_TAGS: BPS DURATION NUMBER_OF_FRAMES NUMBER_OF_BYTES
        BPS             : 194911
        DURATION        : 00:24:23.994000000
        NUMBER_OF_FRAMES: 68626
        NUMBER_OF_BYTES : 35668729
        _STATISTICS_WRITING_APP: mkvpropedit v66.0.0 ('Josie') 64-bit
        _STATISTICS_WRITING_DATE_UTC: 2025-06-16 10:43:36
        encoder         : Lavc61.19.100 pcm_s16le
frame=  112 fps=0.0 q=-0.0 size=N/A time=00:00:04.67 bitrate=N/A speed= 8.9x    frame=  275 fps=266 q=-0.0 size=N/A time=00:00:11.46 bitrate=N/A speed=11.1x    frame=  476 fps=308 q=-0.0 size=N/A time=00:00:19.85 bitrate=N/A speed=12.8x    frame=  717 fps=346 q=-0.0 size=N/A time=00:00:29.90 bitrate=N/A speed=14.4x    frame=  937 fps=363 q=-0.0 size=N/A time=00:00:39.08 bitrate=N/A speed=15.1x    frame= 1171 fps=379 q=-0.0 size=N/A time=00:00:48.84 bitrate=N/A speed=15.8x    frame= 1398 fps=386 q=-0.0 size=N/A time=00:00:58.30 bitrate=N/A speed=16.1x    frame= 1629 fps=395 q=-0.0 size=N/A time=00:01:07.94 bitrate=N/A speed=16.5x    frame= 1841 fps=397 q=-0.0 size=N/A time=00:01:16.78 bitrate=N/A speed=16.6x    frame= 2056 fps=398 q=-0.0 size=N/A time=00:01:25.75 bitrate=N/A speed=16.6x    frame= 2264 fps=399 q=-0.0 size=N/A time=00:01:34.46 bitrate=N/A speed=16.6x    frame= 2466 fps=398 q=-0.0 size=N/A time=00:01:42.85 bitrate=N/A speed=16.6x    frame= 2657 fps=397 q=-0.0 size=N/A time=00:01:50.81 bitrate=N/A speed=16.5x    frame= 2885 fps=399 q=-0.0 size=N/A time=00:02:00.32 bitrate=N/A speed=16.7x    frame= 3093 fps=400 q=-0.0 size=N/A time=00:02:09.00 bitrate=N/A speed=16.7x    frame= 3298 fps=399 q=-0.0 size=N/A time=00:02:17.55 bitrate=N/A speed=16.6x    frame= 3454 fps=394 q=-0.0 size=N/A time=00:02:24.06 bitrate=N/A speed=16.4x    frame= 3663 fps=395 q=-0.0 size=N/A time=00:02:32.77 bitrate=N/A speed=16.5x    frame= 3892 fps=397 q=-0.0 size=N/A time=00:02:42.32 bitrate=N/A speed=16.5x    frame= 4115 fps=398 q=-0.0 size=N/A time=00:02:51.62 bitrate=N/A speed=16.6x    frame= 4337 fps=400 q=-0.0 size=N/A time=00:03:00.88 bitrate=N/A speed=16.7x    frame= 4585 fps=403 q=-0.0 size=N/A time=00:03:11.23 bitrate=N/A speed=16.8x    frame= 4814 fps=405 q=-0.0 size=N/A time=00:03:20.78 bitrate=N/A speed=16.9x    frame= 5021 fps=405 q=-0.0 size=N/A time=00:03:29.41 bitrate=N/A speed=16.9x    frame= 5254 fps=407 q=-0.0 size=N/A time=00:03:39.13 bitrate=N/A speed=  17x    frame= 5492 fps=409 q=-0.0 size=N/A time=00:03:49.06 bitrate=N/A speed=17.1x    frame= 5735 fps=411 q=-0.0 size=N/A time=00:03:59.19 bitrate=N/A speed=17.2x    frame= 5965 fps=412 q=-0.0 size=N/A time=00:04:08.79 bitrate=N/A speed=17.2x    frame= 6194 fps=414 q=-0.0 size=N/A time=00:04:18.34 bitrate=N/A speed=17.3x    frame= 6425 fps=415 q=-0.0 size=N/A time=00:04:27.97 bitrate=N/A speed=17.3x    frame= 6668 fps=416 q=-0.0 size=N/A time=00:04:38.11 bitrate=N/A speed=17.4x    frame= 6901 fps=418 q=-0.0 size=N/A time=00:04:47.82 bitrate=N/A speed=17.4x    frame= 7130 fps=418 q=-0.0 size=N/A time=00:04:57.38 bitrate=N/A speed=17.4x    frame= 7361 fps=419 q=-0.0 size=N/A time=00:05:07.01 bitrate=N/A speed=17.5x    frame= 7601 fps=421 q=-0.0 size=N/A time=00:05:17.02 bitrate=N/A speed=17.5x    frame= 7822 fps=421 q=-0.0 size=N/A time=00:05:26.24 bitrate=N/A speed=17.6x    frame= 8050 fps=422 q=-0.0 size=N/A time=00:05:35.75 bitrate=N/A speed=17.6x    frame= 8271 fps=422 q=-0.0 size=N/A time=00:05:44.96 bitrate=N/A speed=17.6x    frame= 8499 fps=422 q=-0.0 size=N/A time=00:05:54.47 bitrate=N/A speed=17.6x    frame= 8726 fps=422 q=-0.0 size=N/A time=00:06:03.94 bitrate=N/A speed=17.6x    frame= 8954 fps=423 q=-0.0 size=N/A time=00:06:13.45 bitrate=N/A speed=17.6x    frame= 9186 fps=424 q=-0.0 size=N/A time=00:06:23.13 bitrate=N/A speed=17.7x    frame= 9436 fps=425 q=-0.0 size=N/A time=00:06:33.55 bitrate=N/A speed=17.7x    frame= 9660 fps=425 q=-0.0 size=N/A time=00:06:42.90 bitrate=N/A speed=17.7x    frame= 9898 fps=426 q=-0.0 size=N/A time=00:06:52.82 bitrate=N/A speed=17.8x    frame=10089 fps=425 q=-0.0 size=N/A time=00:07:00.79 bitrate=N/A speed=17.7x    frame=10308 fps=425 q=-0.0 size=N/A time=00:07:09.92 bitrate=N/A speed=17.7x    frame=10541 fps=425 q=-0.0 size=N/A time=00:07:19.64 bitrate=N/A speed=17.7x    frame=10745 fps=425 q=-0.0 size=N/A time=00:07:28.15 bitrate=N/A speed=17.7x    frame=10946 fps=424 q=-0.0 size=N/A time=00:07:36.53 bitrate=N/A speed=17.7x    frame=11154 fps=424 q=-0.0 size=N/A time=00:07:45.21 bitrate=N/A speed=17.7x    frame=11373 fps=424 q=-0.0 size=N/A time=00:07:54.34 bitrate=N/A speed=17.7x    frame=11615 fps=425 q=-0.0 size=N/A time=00:08:04.44 bitrate=N/A speed=17.7x    frame=11862 fps=425 q=-0.0 size=N/A time=00:08:14.74 bitrate=N/A speed=17.7x    frame=12070 fps=425 q=-0.0 size=N/A time=00:08:23.41 bitrate=N/A speed=17.7x    frame=12304 fps=425 q=-0.0 size=N/A time=00:08:33.17 bitrate=N/A speed=17.7x    frame=12547 fps=426 q=-0.0 size=N/A time=00:08:43.31 bitrate=N/A speed=17.8x    frame=12789 fps=427 q=-0.0 size=N/A time=00:08:53.40 bitrate=N/A speed=17.8x    frame=13008 fps=427 q=-0.0 size=N/A time=00:09:02.54 bitrate=N/A speed=17.8x    frame=13252 fps=428 q=-0.0 size=N/A time=00:09:12.71 bitrate=N/A speed=17.8x    frame=13461 fps=428 q=-0.0 size=N/A time=00:09:21.43 bitrate=N/A speed=17.8x    frame=13707 fps=428 q=-0.0 size=N/A time=00:09:31.69 bitrate=N/A speed=17.9x    frame=13945 fps=429 q=-0.0 size=N/A time=00:09:41.62 bitrate=N/A speed=17.9x    frame=14168 fps=429 q=-0.0 size=N/A time=00:09:50.92 bitrate=N/A speed=17.9x    frame=14387 fps=429 q=-0.0 size=N/A time=00:10:00.05 bitrate=N/A speed=17.9x    frame=14622 fps=429 q=-0.0 size=N/A time=00:10:09.85 bitrate=N/A speed=17.9x    frame=14833 fps=429 q=-0.0 size=N/A time=00:10:18.65 bitrate=N/A speed=17.9x    frame=15069 fps=429 q=-0.0 size=N/A time=00:10:28.50 bitrate=N/A speed=17.9x    frame=15323 fps=430 q=-0.0 size=N/A time=00:10:39.09 bitrate=N/A speed=17.9x    frame=15533 fps=430 q=-0.0 size=N/A time=00:10:47.85 bitrate=N/A speed=17.9x    frame=15742 fps=430 q=-0.0 size=N/A time=00:10:56.57 bitrate=N/A speed=17.9x    frame=15971 fps=430 q=-0.0 size=N/A time=00:11:06.12 bitrate=N/A speed=17.9x    frame=16192 fps=430 q=-0.0 size=N/A time=00:11:15.34 bitrate=N/A speed=17.9x    frame=16421 fps=430 q=-0.0 size=N/A time=00:11:24.89 bitrate=N/A speed=17.9x    frame=16675 fps=431 q=-0.0 size=N/A time=00:11:35.48 bitrate=N/A speed=  18x    frame=16919 fps=431 q=-0.0 size=N/A time=00:11:45.66 bitrate=N/A speed=  18x    frame=17165 fps=432 q=-0.0 size=N/A time=00:11:55.92 bitrate=N/A speed=  18x    frame=17406 fps=432 q=-0.0 size=N/A time=00:12:05.97 bitrate=N/A speed=  18x    frame=17639 fps=433 q=-0.0 size=N/A time=00:12:15.69 bitrate=N/A speed=  18x    frame=17889 fps=433 q=-0.0 size=N/A time=00:12:26.12 bitrate=N/A speed=18.1x    frame=18110 fps=433 q=-0.0 size=N/A time=00:12:35.33 bitrate=N/A speed=18.1x    frame=18357 fps=434 q=-0.0 size=N/A time=00:12:45.63 bitrate=N/A speed=18.1x    frame=18575 fps=434 q=-0.0 size=N/A time=00:12:54.73 bitrate=N/A speed=18.1x    frame=18813 fps=434 q=-0.0 size=N/A time=00:13:04.65 bitrate=N/A speed=18.1x    frame=19041 fps=434 q=-0.0 size=N/A time=00:13:14.16 bitrate=N/A speed=18.1x    frame=19275 fps=434 q=-0.0 size=N/A time=00:13:23.92 bitrate=N/A speed=18.1x    frame=19482 fps=434 q=-0.0 size=N/A time=00:13:32.56 bitrate=N/A speed=18.1x    frame=19714 fps=434 q=-0.0 size=N/A time=00:13:42.23 bitrate=N/A speed=18.1x    frame=19927 fps=434 q=-0.0 size=N/A time=00:13:51.12 bitrate=N/A speed=18.1x    frame=20146 fps=434 q=-0.0 size=N/A time=00:14:00.25 bitrate=N/A speed=18.1x    frame=20363 fps=434 q=-0.0 size=N/A time=00:14:09.30 bitrate=N/A speed=18.1x    frame=20593 fps=434 q=-0.0 size=N/A time=00:14:18.89 bitrate=N/A speed=18.1x    frame=20813 fps=434 q=-0.0 size=N/A time=00:14:28.07 bitrate=N/A speed=18.1x    frame=21048 fps=434 q=-0.0 size=N/A time=00:14:37.87 bitrate=N/A speed=18.1x    frame=21301 fps=434 q=-0.0 size=N/A time=00:14:48.42 bitrate=N/A speed=18.1x    frame=21551 fps=435 q=-0.0 size=N/A time=00:14:58.85 bitrate=N/A speed=18.1x    frame=21794 fps=435 q=-0.0 size=N/A time=00:15:08.99 bitrate=N/A speed=18.2x    frame=22033 fps=436 q=-0.0 size=N/A time=00:15:18.95 bitrate=N/A speed=18.2x    frame=22264 fps=436 q=-0.0 size=N/A time=00:15:28.59 bitrate=N/A speed=18.2x    frame=22509 fps=436 q=-0.0 size=N/A time=00:15:38.81 bitrate=N/A speed=18.2x    frame=22752 fps=436 q=-0.0 size=N/A time=00:15:48.94 bitrate=N/A speed=18.2x    frame=23002 fps=437 q=-0.0 size=N/A time=00:15:59.37 bitrate=N/A speed=18.2x    frame=23244 fps=437 q=-0.0 size=N/A time=00:16:09.46 bitrate=N/A speed=18.2x    frame=23477 fps=437 q=-0.0 size=N/A time=00:16:19.18 bitrate=N/A speed=18.2x    frame=23707 fps=437 q=-0.0 size=N/A time=00:16:28.77 bitrate=N/A speed=18.2x    frame=23945 fps=438 q=-0.0 size=N/A time=00:16:38.70 bitrate=N/A speed=18.3x    frame=24174 fps=438 q=-0.0 size=N/A time=00:16:48.25 bitrate=N/A speed=18.3x    frame=24409 fps=438 q=-0.0 size=N/A time=00:16:58.05 bitrate=N/A speed=18.3x    frame=24653 fps=438 q=-0.0 size=N/A time=00:17:08.23 bitrate=N/A speed=18.3x    frame=24871 fps=438 q=-0.0 size=N/A time=00:17:17.32 bitrate=N/A speed=18.3x    frame=25108 fps=438 q=-0.0 size=N/A time=00:17:27.21 bitrate=N/A speed=18.3x    frame=25334 fps=438 q=-0.0 size=N/A time=00:17:36.63 bitrate=N/A speed=18.3x    frame=25555 fps=438 q=-0.0 size=N/A time=00:17:45.85 bitrate=N/A speed=18.3x    frame=25794 fps=438 q=-0.0 size=N/A time=00:17:55.82 bitrate=N/A speed=18.3x    frame=26032 fps=439 q=-0.0 size=N/A time=00:18:05.75 bitrate=N/A speed=18.3x    frame=26287 fps=439 q=-0.0 size=N/A time=00:18:16.38 bitrate=N/A speed=18.3x    frame=26538 fps=440 q=-0.0 size=N/A time=00:18:26.85 bitrate=N/A speed=18.3x    frame=26775 fps=440 q=-0.0 size=N/A time=00:18:36.74 bitrate=N/A speed=18.3x    frame=27012 fps=440 q=-0.0 size=N/A time=00:18:46.62 bitrate=N/A speed=18.3x    frame=27242 fps=440 q=-0.0 size=N/A time=00:18:56.21 bitrate=N/A speed=18.3x    frame=27492 fps=440 q=-0.0 size=N/A time=00:19:06.64 bitrate=N/A speed=18.4x    frame=27736 fps=441 q=-0.0 size=N/A time=00:19:16.82 bitrate=N/A speed=18.4x    frame=27965 fps=441 q=-0.0 size=N/A time=00:19:26.37 bitrate=N/A speed=18.4x    frame=28212 fps=441 q=-0.0 size=N/A time=00:19:36.67 bitrate=N/A speed=18.4x    frame=28426 fps=441 q=-0.0 size=N/A time=00:19:45.60 bitrate=N/A speed=18.4x    frame=28659 fps=441 q=-0.0 size=N/A time=00:19:55.31 bitrate=N/A speed=18.4x    frame=28902 fps=441 q=-0.0 size=N/A time=00:20:05.45 bitrate=N/A speed=18.4x    frame=29133 fps=441 q=-0.0 size=N/A time=00:20:15.08 bitrate=N/A speed=18.4x    frame=29371 fps=441 q=-0.0 size=N/A time=00:20:25.01 bitrate=N/A speed=18.4x    frame=29615 fps=441 q=-0.0 size=N/A time=00:20:35.19 bitrate=N/A speed=18.4x    frame=29859 fps=442 q=-0.0 size=N/A time=00:20:45.36 bitrate=N/A speed=18.4x    frame=30104 fps=442 q=-0.0 size=N/A time=00:20:55.58 bitrate=N/A speed=18.4x    frame=30358 fps=442 q=-0.0 size=N/A time=00:21:06.18 bitrate=N/A speed=18.4x    frame=30593 fps=442 q=-0.0 size=N/A time=00:21:15.98 bitrate=N/A speed=18.4x    frame=30794 fps=442 q=-0.0 size=N/A time=00:21:24.36 bitrate=N/A speed=18.4x    frame=31022 fps=442 q=-0.0 size=N/A time=00:21:33.87 bitrate=N/A speed=18.4x    frame=31266 fps=442 q=-0.0 size=N/A time=00:21:44.05 bitrate=N/A speed=18.4x    frame=31516 fps=443 q=-0.0 size=N/A time=00:21:54.47 bitrate=N/A speed=18.5x    frame=31749 fps=443 q=-0.0 size=N/A time=00:22:04.19 bitrate=N/A speed=18.5x    frame=31987 fps=443 q=-0.0 size=N/A time=00:22:14.12 bitrate=N/A speed=18.5x    frame=32233 fps=443 q=-0.0 size=N/A time=00:22:24.38 bitrate=N/A speed=18.5x    frame=32467 fps=443 q=-0.0 size=N/A time=00:22:34.14 bitrate=N/A speed=18.5x    frame=32700 fps=443 q=-0.0 size=N/A time=00:22:43.86 bitrate=N/A speed=18.5x    frame=32923 fps=443 q=-0.0 size=N/A time=00:22:53.16 bitrate=N/A speed=18.5x    frame=33137 fps=443 q=-0.0 size=N/A time=00:23:02.08 bitrate=N/A speed=18.5x    frame=33341 fps=442 q=-0.0 size=N/A time=00:23:10.59 bitrate=N/A speed=18.4x    frame=33544 fps=442 q=-0.0 size=N/A time=00:23:19.06 bitrate=N/A speed=18.4x    frame=33745 fps=442 q=-0.0 size=N/A time=00:23:27.44 bitrate=N/A speed=18.4x    frame=33966 fps=442 q=-0.0 size=N/A time=00:23:36.66 bitrate=N/A speed=18.4x    frame=34175 fps=441 q=-0.0 size=N/A time=00:23:45.38 bitrate=N/A speed=18.4x    frame=34411 fps=442 q=-0.0 size=N/A time=00:23:55.22 bitrate=N/A speed=18.4x    frame=34607 fps=441 q=-0.0 size=N/A time=00:24:03.40 bitrate=N/A speed=18.4x    frame=34795 fps=441 q=-0.0 size=N/A time=00:24:11.24 bitrate=N/A speed=18.4x    frame=35018 fps=441 q=-0.0 size=N/A time=00:24:20.54 bitrate=N/A speed=18.4x    [Parsed_ssim_10 @ 0000026cf31ab5c0] SSIM Y:0.995232 (23.216671) U:0.995668 (23.633101) V:0.996096 (24.084489) All:0.995449 (23.418575)
[out#0/null @ 0000026cec5b40c0] video:15082KiB audio:274504KiB subtitle:0KiB other streams:0KiB global headers:0KiB muxing overhead: unknown
frame=35100 fps=441 q=-0.0 Lsize=N/A time=00:24:23.96 bitrate=N/A speed=18.4x    
